<?xml version="1.0" encoding="UTF-8" standalone="no"?>
<svg
   xmlns:dc="http://purl.org/dc/elements/1.1/"
   xmlns:cc="http://creativecommons.org/ns#"
   xmlns:rdf="http://www.w3.org/1999/02/22-rdf-syntax-ns#"
   xmlns:svg="http://www.w3.org/2000/svg"
   xmlns="http://www.w3.org/2000/svg"
   xmlns:sodipodi="http://sodipodi.sourceforge.net/DTD/sodipodi-0.dtd"
   xmlns:inkscape="http://www.inkscape.org/namespaces/inkscape"
   id="Layer_1"
   data-name="Layer 1"
   viewBox="0 0 80 13"
   version="1.1"
   sodipodi:docname="stripe.svg"
   width="80"
   height="13"
   inkscape:version="0.92.5 (2060ec1f9f, 2020-04-08)">
  <metadata
     id="metadata1035">
    <rdf:RDF>
      <cc:Work
         rdf:about="">
        <dc:format>image/svg+xml</dc:format>
        <dc:type
           rdf:resource="http://purl.org/dc/dcmitype/StillImage" />
        <dc:title>Powered by Stripe - blurple</dc:title>
      </cc:Work>
    </rdf:RDF>
  </metadata>
  <sodipodi:namedview
     pagecolor="#ffffff"
     bordercolor="#666666"
     borderopacity="1"
     objecttolerance="10"
     gridtolerance="10"
     guidetolerance="10"
     inkscape:pageopacity="0"
     inkscape:pageshadow="2"
     inkscape:window-width="1608"
     inkscape:window-height="986"
     id="namedview1033"
     showgrid="false"
     inkscape:zoom="4.9544615"
     inkscape:cx="19.142762"
     inkscape:cy="20.246605"
     inkscape:window-x="72"
     inkscape:window-y="27"
     inkscape:window-maximized="1"
     inkscape:current-layer="Layer_1" />
  <defs
     id="defs994">
    <style
       id="style992">.cls-1{fill:#635bff;}</style>
  </defs>
  <title
     id="title996">Powered by Stripe - blurple</title>
  <g
     id="g1169"
     style="fill:#828282;fill-opacity:1"
     transform="matrix(1.1334138,0,0,1.1334138,-2.5030175,-0.8671897)">
    <path
       style="fill:#828282;fill-opacity:1;stroke-width:0.39302969"
       id="path998"
       d="M 70.910649,0.9195 H 3.9622992 A 1.7552352,1.2244274 0 0 0 2.207064,2.1439262 V 10.856075 A 1.7552352,1.2244274 0 0 0 3.9622992,12.0805 H 70.910649 a 1.8822897,1.3130589 0 0 0 1.882287,-1.313057 V 2.2325574 A 1.8822897,1.3130589 0 0 0 70.910649,0.9195 Z m 1.411713,9.847943 a 1.4117173,0.98479434 0 0 1 -1.411713,0.984792 H 3.9622992 a 1.2893685,0.8994454 0 0 1 -1.284663,-0.89616 V 2.1439262 a 1.2893685,0.8994454 0 0 1 1.284663,-0.896162 H 70.910649 a 1.4117173,0.98479434 0 0 1 1.411713,0.9847932 z"
       class="cls-1"
       inkscape:connector-curvature="0" />
    <g
       transform="translate(-0.70532333,0.03848587)"
       id="g1147"
       style="fill:#828282;fill-opacity:1">
      <g
         id="g1127"
         transform="matrix(0.99160579,0,0,1,0.07573797,-0.30737972)"
         style="fill:#828282;fill-opacity:1">
        <path
           id="path1000"
           d="M 10.992164,3.918064 H 9.022646 V 8.656752 H 9.90206 V 6.824695 h 1.090104 c 1.099266,0 1.786308,-0.510862 1.786308,-1.453314 0,-0.942456 -0.687042,-1.453317 -1.786308,-1.453317 z m -0.0458,2.201994 H 9.902059 V 4.666744 h 1.058043 c 0.632077,0 0.966437,0.259835 0.966437,0.726656 0,0.466823 -0.348099,0.704637 -0.966437,0.704637 z"
           class="cls-1"
           style="fill:#828282;fill-opacity:1;stroke-width:0.44912654"
           inkscape:connector-curvature="0" />
        <path
           id="path1002"
           d="m 14.670125,5.133566 a 1.7267636,1.6603027 0 0 0 -1.740505,1.801231 1.7450847,1.6779186 0 1 0 3.476428,0 1.7221833,1.6558987 0 0 0 -1.735923,-1.801231 z m 0,2.937458 c -0.558794,0 -0.916054,-0.440401 -0.916054,-1.136227 0,-0.69583 0.348101,-1.136232 0.916054,-1.136232 0.567953,0 0.916054,0.440402 0.916054,1.136232 0,0.695826 -0.36184,1.131822 -0.916054,1.131822 z"
           class="cls-1"
           style="fill:#828282;fill-opacity:1;stroke-width:0.44912654"
           inkscape:connector-curvature="0" />
        <polygon
           transform="matrix(0.45802747,0,0,0.44039857,3.173635,-1.032015)"
           id="polygon1004"
           points="34.59,16.85 36.03,22.01 37.59,22.01 39.96,14.13 38.18,14.13 36.78,19.35 35.37,14.13 33.89,14.13 32.49,19.35 31.07,14.13 29.22,14.13 31.59,22.01 33.15,22.01 "
           class="cls-1"
           style="fill:#828282;fill-opacity:1" />
        <path
           id="path1006"
           d="m 23.326844,5.133566 a 1.7542452,1.6867266 0 0 0 -1.717604,1.801231 1.7359241,1.6691105 0 0 0 1.754246,1.801226 1.5893553,1.5281831 0 0 0 1.561873,-0.960066 l -0.68246,-0.273046 a 0.81528888,0.78390944 0 0 1 -0.838191,0.5549 0.97101823,0.93364496 0 0 1 -0.993918,-0.955664 h 2.528311 v -0.26424 c 0.0092,-0.951261 -0.549634,-1.704341 -1.612257,-1.704341 z m -0.883993,1.378447 a 0.87941272,0.84556524 0 0 1 0.883993,-0.717848 0.71452285,0.68702177 0 0 1 0.774066,0.713443 z"
           class="cls-1"
           style="fill:#828282;fill-opacity:1;stroke-width:0.44912654"
           inkscape:connector-curvature="0" />
        <path
           id="path1008"
           d="M 26.391047,5.706082 V 5.190819 h -0.824448 v 3.465933 h 0.824448 V 6.837907 a 0.8656719,0.83235329 0 0 1 0.916055,-0.880798 2.1435685,2.0610652 0 0 1 0.302298,0 V 5.164393 c -0.06412,0 -0.137406,0 -0.233594,0 a 1.0488828,1.0085127 0 0 0 -0.984759,0.541689 z"
           class="cls-1"
           style="fill:#828282;fill-opacity:1;stroke-width:0.44912654"
           inkscape:connector-curvature="0" />
        <path
           id="path1010"
           d="m 29.501054,5.133566 a 1.7542452,1.6867266 0 0 0 -1.717602,1.801231 1.7359241,1.6691105 0 0 0 1.754244,1.801226 1.5893553,1.5281831 0 0 0 1.543553,-0.960066 L 30.375887,7.516122 A 0.81528888,0.78390944 0 0 1 29.537696,8.071024 0.97101823,0.93364496 0 0 1 28.575839,7.115359 h 2.537473 v -0.26424 c 0,-0.964473 -0.567956,-1.717553 -1.612258,-1.717553 z m -0.883992,1.378447 a 0.87941272,0.84556524 0 0 1 0.879411,-0.713448 0.71452285,0.68702177 0 0 1 0.774067,0.713448 z"
           class="cls-1"
           style="fill:#828282;fill-opacity:1;stroke-width:0.44912654"
           inkscape:connector-curvature="0" />
        <path
           id="path1012"
           d="M 34.11797,5.573963 A 1.3053782,1.2551359 0 0 0 33.082829,5.133566 c -1.01224,0 -1.589355,0.814735 -1.589355,1.801231 0,0.986491 0.577115,1.801226 1.589355,1.801226 A 1.2916374,1.241924 0 0 0 34.11797,8.295626 v 0.361126 h 0.824451 V 3.918064 H 34.11797 Z m 0,1.475336 a 0.91605492,0.88079714 0 0 1 -0.916054,1.004107 c -0.600017,0 -0.916054,-0.440397 -0.916054,-1.109802 0,-0.669407 0.320619,-1.109807 0.916054,-1.109807 0.508411,0 0.916054,0.356725 0.916054,1.008515 z"
           class="cls-1"
           style="fill:#828282;fill-opacity:1;stroke-width:0.44912654"
           inkscape:connector-curvature="0" />
        <path
           id="path1014"
           d="M 39.499794,5.133566 A 1.319119,1.2683479 0 0 0 38.441751,5.573963 V 3.918064 H 37.6173 v 4.738688 h 0.824451 V 8.291223 a 1.3099585,1.2595401 0 0 0 1.039721,0.440399 c 1.00766,0 1.584776,-0.819141 1.584776,-1.801231 0,-0.98209 -0.558794,-1.796825 -1.566454,-1.796825 z M 39.357806,8.040197 A 0.91605492,0.88079714 0 0 1 38.441751,7.036088 V 6.8291 c 0,-0.651791 0.384742,-1.008515 0.916055,-1.008515 0.595434,0 0.916054,0.440401 0.916054,1.109806 0,0.669405 -0.343521,1.109806 -0.916054,1.109806 z"
           class="cls-1"
           style="fill:#828282;fill-opacity:1;stroke-width:0.44912654"
           inkscape:connector-curvature="0" />
        <path
           id="path1016"
           d="M 42.989963,7.626222 42.105971,5.190819 h -0.870254 l 1.32828,3.342622 -0.137408,0.325897 a 0.45802747,0.44039857 0 0 1 -0.522151,0.347913 1.8870732,1.8144422 0 0 1 -0.274817,0 v 0.665003 a 2.1160869,2.0346414 0 0 0 0.334361,0.02203 1.2229333,1.1758641 0 0 0 1.273316,-0.880799 l 1.48401,-3.796238 h -0.865672 z"
           class="cls-1"
           style="fill:#828282;fill-opacity:1;stroke-width:0.44912654"
           inkscape:connector-curvature="0" />
      </g>
      <g
         id="g1116"
         transform="matrix(1.0629233,0,0,1.0516897,-2.9874068,-0.4426816)"
         style="fill:#828282;fill-opacity:1">
        <path
           style="fill:#828282;fill-opacity:1;stroke-width:0.44912654"
           id="path1018"
           d="M 60.427067,4.442138 A 1.3740824,1.3211957 0 0 0 59.45147,4.825287 L 59.387349,4.52141 h -1.094686 v 5.68995 L 59.538499,9.951526 V 8.573078 a 1.3740824,1.3211957 0 0 0 0.883993,0.30828 c 0.88857,0 1.703857,-0.700235 1.703857,-2.250439 0,-1.418081 -0.824442,-2.188781 -1.699282,-2.188781 z M 60.129351,7.802379 A 0.73742422,0.70904169 0 0 1 59.543076,7.573373 v -1.81004 a 0.75116504,0.72225363 0 0 1 0.595433,-0.242216 c 0.45803,0 0.769489,0.49765 0.769489,1.136227 0,0.638578 -0.316043,1.145035 -0.778647,1.145035 z"
           class="cls-1"
           inkscape:connector-curvature="0" />
        <path
           style="fill:#828282;fill-opacity:1;stroke-width:0.44912654"
           id="path1020"
           d="m 64.425659,4.442138 c -1.20004,0 -1.9283,0.995302 -1.9283,2.250439 0,1.484144 0.86109,2.237222 2.0886,2.237222 a 2.803128,2.6952393 0 0 0 1.37409,-0.321488 V 7.617414 a 2.6519789,2.5499075 0 0 1 -1.23669,0.273047 c -0.49465,0 -0.91606,-0.171756 -0.98018,-0.748681 h 2.46421 c 0,-0.06604 0,-0.325893 0,-0.440397 0.0411,-1.263943 -0.58171,-2.259245 -1.78173,-2.259245 z m -0.67331,1.792424 c 0,-0.554901 0.35268,-0.788315 0.66414,-0.788315 0.31146,0 0.64124,0.233414 0.64124,0.788315 z"
           class="cls-1"
           inkscape:connector-curvature="0" />
        <path
           style="fill:#828282;fill-opacity:1;stroke-width:0.44912654"
           id="path1022"
           d="m 54.930739,4.851709 -0.07786,-0.361127 h -1.062625 v 4.276272 h 1.227514 V 5.869031 A 0.85651135,0.82354531 0 0 1 55.956724,5.613599 V 4.490582 a 0.82444944,0.79271743 0 0 0 -1.025981,0.361127 z"
           class="cls-1"
           inkscape:connector-curvature="0" />
        <path
           style="fill:#828282;fill-opacity:1;stroke-width:0.44912654"
           id="path1024"
           d="m 48.729046,5.776546 c 0,-0.193776 0.16489,-0.268642 0.425967,-0.268642 a 2.702362,2.5983516 0 0 1 1.236675,0.317087 V 4.666744 A 3.2061923,3.08279 0 0 0 49.155013,4.442138 c -1.012242,0 -1.685542,0.519673 -1.685542,1.391659 0,1.365236 1.896235,1.145039 1.896235,1.730767 0,0.229007 -0.201533,0.303877 -0.458028,0.303877 A 3.1054263,2.9859024 0 0 1 47.533595,7.47208 v 1.184672 a 3.3802426,3.2501415 0 0 0 1.374083,0.281857 c 1.035141,0 1.749665,-0.506459 1.749665,-1.391659 -0.02291,-1.479739 -1.928297,-1.215501 -1.928297,-1.770404 z"
           class="cls-1"
           inkscape:connector-curvature="0" />
        <path
           style="fill:#828282;fill-opacity:1;stroke-width:0.44912654"
           id="path1026"
           d="M 52.310822,3.477667 51.097049,3.733098 V 7.665855 A 1.2687361,1.219904 0 0 0 52.388686,8.929799 1.9053942,1.832058 0 0 0 53.26352,8.766854 V 7.775957 C 53.10321,7.841997 52.319982,8.066619 52.319982,7.335556 V 5.573963 H 53.26352 V 4.543429 h -0.943538 z"
           class="cls-1"
           inkscape:connector-curvature="0" />
        <polygon
           transform="matrix(0.45802747,0,0,0.44039857,3.173635,-1.032015)"
           style="fill:#828282;fill-opacity:1"
           id="polygon1028"
           points="118.98,8.97 116.25,9.54 116.25,11.7 118.98,11.13 "
           class="cls-1" />
        <rect
           style="fill:#828282;fill-opacity:1;stroke-width:0.44912654"
           id="rect1030"
           height="4.2454414"
           width="1.2504151"
           y="4.5214095"
           x="56.419319"
           class="cls-1" />
      </g>
    </g>
  </g>
</svg>
